<svg xmlns="http://www.w3.org/2000/svg" xml:space="preserve" style="fill-rule:evenodd;clip-rule:evenodd;stroke-linecap:round;stroke-linejoin:round;stroke-miterlimit:1.5" viewBox="0 0 2116 877"><path d="M0 0h2115.82v876.742H0z" style="fill:none"/><path d="M794.676 135.364h-7.119c-3.711 0-6.724-2.951-6.724-6.586v-13.172c0-3.634 3.013-6.586 6.724-6.586h557.792c3.711 0 6.724 2.952 6.724 6.586v13.172c0 3.635-3.013 6.586-6.724 6.586h-7.118v655.423c0 50.216-543.555 50.216-543.555 0z" style="fill:#fff;stroke:#000;stroke-width:43.4px"/><path d="M1316.48 192.069v598.102c0 46.338-502.127 44.699-502.127 0V192.069c0-47.221 502.127-40.333 502.127 0" style="fill:#d5f1f6"/><path d="M1502.23 133.296h-7.119c-3.711 0-6.724-2.951-6.724-6.586v-13.171c0-3.635 3.013-6.586 6.724-6.586h557.792c3.711 0 6.724 2.951 6.724 6.586v13.171c0 3.635-3.013 6.586-6.724 6.586h-7.118v655.423c0 50.216-543.555 50.216-543.555 0z" style="fill:#fff;stroke:#000;stroke-width:43.4px"/><path d="M2029.67 190.002v598.101c0 46.339-504.456 44.699-504.456 0V190.002c0-47.222 504.456-40.334 504.456 0" style="fill:#d5f1f6;stroke:#000;stroke-width:4.17px"/><path d="M1774.01 153.222v66.936c0 5.185-218.943 5.002-218.943 0v-66.936c0-5.285 218.943-4.514 218.943 0M2020.35 154.484v66.936c0 5.186-218.943 5.003-218.943 0v-66.936c0-5.284 218.943-4.513 218.943 0" style="fill:#fff;stroke:#000;stroke-width:4.17px"/><path d="M87.121 131.229h-7.119c-3.711 0-6.724-2.952-6.724-6.586v-13.172c0-3.635 3.013-6.586 6.724-6.586h557.792c3.711 0 6.724 2.951 6.724 6.586v13.172c0 3.634-3.013 6.586-6.724 6.586h-7.118v655.422c0 50.216-543.555 50.216-543.555 0z" style="fill:#fff;stroke:#000;stroke-width:43.4px"/><path d="M611.997 187.934v598.101c0 46.339-504.431 44.699-504.431 0V187.934c0-47.222 504.431-40.334 504.431 0" style="fill:#d5f1f6"/><text x="197.96" y="616.694" style="font-family:&quot;AlfaSlabOne-Regular&quot;,&quot;Alfa Slab One&quot;;font-size:400px">A</text><text x="911.715" y="614.626" style="font-family:&quot;AlfaSlabOne-Regular&quot;,&quot;Alfa Slab One&quot;;font-size:400px">B</text><text x="1629.61" y="591.611" style="font-family:&quot;AlfaSlabOne-Regular&quot;,&quot;Alfa Slab One&quot;;font-size:400px">C</text></svg>