<svg xmlns="http://www.w3.org/2000/svg" viewBox="0 0 1200 520" role="img" aria-labelledby="title desc">
  <title id="title">Rutherford gold foil experiment</title>
  <desc id="desc">Alpha particles approach a thin gold foil. Most pass straight through, while a few are deflected by nuclei within the foil.</desc>
  <defs>
    <linearGradient id="bg" x1="0" x2="1" y1="0" y2="1">
      <stop offset="0%" stop-color="#f8fbff"/>
      <stop offset="100%" stop-color="#eef6ff"/>
    </linearGradient>
    <linearGradient id="foil" x1="0" x2="1">
      <stop offset="0%" stop-color="#f5d98c"/>
      <stop offset="100%" stop-color="#d97706"/>
    </linearGradient>
    <radialGradient id="field" cx="50%" cy="50%" r="50%">
      <stop offset="0%" stop-color="#1d4ed8" stop-opacity="0.22"/>
      <stop offset="65%" stop-color="#1d4ed8" stop-opacity="0.08"/>
      <stop offset="100%" stop-color="#1d4ed8" stop-opacity="0"/>
    </radialGradient>
    <filter id="shadow" x="-20%" y="-20%" width="140%" height="140%">
      <feDropShadow dx="0" dy="12" stdDeviation="16" flood-color="#94a3b8" flood-opacity="0.16"/>
    </filter>
  </defs>

  <rect width="1200" height="520" rx="32" fill="url(#bg)"/>
  <g filter="url(#shadow)">
    <rect x="44" y="40" width="1112" height="440" rx="28" fill="#ffffff" stroke="#cbd5e1" stroke-width="1.5"/>
  </g>

  <rect x="566" y="82" width="18" height="340" rx="9" fill="url(#foil)" stroke="#b45309" stroke-width="1.8"/>
  
  <g>
    <circle cx="575" cy="132" r="50" fill="url(#field)"/>
    <circle cx="575" cy="132" r="11" fill="#1d4ed8"/>
    <rect x="566.8" y="130.3" width="16.4" height="3.3" rx="1.6" fill="#ffffff"/>
    <rect x="573.3" y="123.8" width="3.3" height="16.4" rx="1.6" fill="#ffffff"/>

    <circle cx="575" cy="252" r="50" fill="url(#field)"/>
    <circle cx="575" cy="252" r="11" fill="#1d4ed8"/>
    <rect x="566.8" y="250.3" width="16.4" height="3.3" rx="1.6" fill="#ffffff"/>
    <rect x="573.3" y="243.8" width="3.3" height="16.4" rx="1.6" fill="#ffffff"/>

    <circle cx="575" cy="372" r="50" fill="url(#field)"/>
    <circle cx="575" cy="372" r="11" fill="#1d4ed8"/>
    <rect x="566.8" y="370.3" width="16.4" height="3.3" rx="1.6" fill="#ffffff"/>
    <rect x="573.3" y="363.8" width="3.3" height="16.4" rx="1.6" fill="#ffffff"/>
  </g>

  <g fill="#1d4ed8">
    <circle cx="88" cy="132" r="13"/>
    <circle cx="88" cy="192" r="13"/>
    <circle cx="88" cy="252" r="13"/>
    <circle cx="88" cy="312" r="13"/>
    <circle cx="88" cy="372" r="13"/>
  </g>
  <g fill="#ffffff" font-family="Arial, Helvetica, sans-serif" font-size="18" font-weight="700" text-anchor="middle">
    <text x="88" y="138">+</text>
    <text x="88" y="198">+</text>
    <text x="88" y="258">+</text>
    <text x="88" y="318">+</text>
    <text x="88" y="378">+</text>
  </g>

  <g fill="none" stroke="#d97706" stroke-width="4" stroke-linecap="round" stroke-linejoin="round">
    <path d="M108 192H1038"/>
    <path d="M108 312H1038"/>

    <path d="M108 132 L 555 132 Q 570 132 590 100 L 680 28"/>

    <path d="M108 252 L 558 252 Q 570 252 540 300 L 380 500"/>

    <path d="M108 372 L 555 372 Q 570 372 590 404 L 680 492"/>
  </g>

  <g fill="#d97706">
    <polygon points="1026,183 1054,192 1026,201"/> 
    <polygon points="1026,303 1054,312 1026,321"/>
    
    <g transform="translate(685,18) rotate(-52)">
      <polygon points="-18,-12 12,0 -18,12"/>
    </g>
    
    <g transform="translate(385,490) rotate(130)">
      <polygon points="-18,-12 12,0 -18,12"/>
    </g>
    
    <g transform="translate(680,492) rotate(44)">
      <polygon points="-18,-12 12,0 -18,12"/>
    </g>
  </g>
</svg>
