<svg width="100%" viewBox="0 0 680 870" xmlns="http://www.w3.org/2000/svg" role="img">
  <title>Iron electron configuration with Aufbau filling order arrows</title>
  <desc>Building layout matching the periodic table with dashed amber arrows showing the Aufbau filling order: 1s → 2s → 2p → 3s → 3p → 4s → 3d → 4p</desc>
  <defs>
    <marker id="arr-amber" viewBox="0 0 10 10" refX="8" refY="5" markerWidth="6" markerHeight="6" orient="auto-start-reverse">
      <path d="M2 1L8 5L2 9" fill="none" stroke="#BA7517" stroke-width="1.5" stroke-linecap="round" stroke-linejoin="round"/>
    </marker>
    <style>
      text { font-family: sans-serif; fill: #333; }
      .th { font-size: 14px; font-weight: 500; }
      .ts { font-size: 12px; }
    </style>
  </defs>

  <!-- Wing backgrounds -->
  <rect x="20" y="76" width="112" height="728" rx="12" fill="#dbeafe" opacity="0.4"/>
  <rect x="144" y="306" width="282" height="498" rx="12" fill="#d1fae5" opacity="0.4"/>
  <rect x="438" y="76" width="224" height="728" rx="12" fill="#fee2e2" opacity="0.3"/>

  <!-- Wing headers -->
  <text class="th" x="76" y="66" text-anchor="middle" fill="#185FA5">s block</text>
  <text class="th" x="285" y="296" text-anchor="middle" fill="#0F6E56">d block</text>
  <text class="th" x="550" y="66" text-anchor="middle" fill="#993C1D">p block</text>

  <!-- Floor dividers -->
  <line x1="20" y1="310" x2="662" y2="310" stroke="#aaa" stroke-width="0.8" stroke-dasharray="5 3"/>
  <line x1="20" y1="570" x2="662" y2="570" stroke="#aaa" stroke-width="0.8" stroke-dasharray="5 3"/>
  <line x1="20" y1="730" x2="662" y2="730" stroke="#aaa" stroke-width="0.8" stroke-dasharray="5 3"/>

  <!-- Floor labels -->
  <text class="ts" x="12" y="188" text-anchor="middle" fill="#185FA5" transform="rotate(-90,12,188)">n = 4</text>
  <text class="ts" x="12" y="440" text-anchor="middle" fill="#185FA5" transform="rotate(-90,12,440)">n = 3</text>
  <text class="ts" x="12" y="650" text-anchor="middle" fill="#185FA5" transform="rotate(-90,12,650)">n = 2</text>
  <text class="ts" x="12" y="765" text-anchor="middle" fill="#185FA5" transform="rotate(-90,12,765)">n = 1</text>

  <!-- FLOOR 1: 1s full -->
  <rect x="28" y="738" width="96" height="84" rx="8" fill="#f8fafc" stroke="#378ADD" stroke-width="0.8"/>
  <text class="ts" x="76" y="756" text-anchor="middle" fill="#185FA5">1s</text>
  <rect x="36" y="768" width="80" height="26" rx="6" fill="#B5D4F4" stroke="#378ADD" stroke-width="0.8"/>
  <rect x="36" y="768" width="11" height="17" rx="3" fill="#85B7EB" stroke="#378ADD" stroke-width="0.5"/>
  <rect x="105" y="768" width="11" height="17" rx="3" fill="#85B7EB" stroke="#378ADD" stroke-width="0.5"/>
  <rect x="36" y="764" width="80" height="8" rx="3" fill="#85B7EB" stroke="#378ADD" stroke-width="0.5"/>
  <circle cx="60" cy="781" r="8" fill="#185FA5"/>
  <circle cx="92" cy="781" r="8" fill="#185FA5"/>
  <text font-size="10" x="58" y="785" text-anchor="middle" fill="white">↑</text>
  <text font-size="10" x="90" y="785" text-anchor="middle" fill="white">↓</text>

  <!-- FLOOR 2: 2s full -->
  <rect x="28" y="578" width="96" height="144" rx="8" fill="#f8fafc" stroke="#378ADD" stroke-width="0.8"/>
  <text class="ts" x="76" y="596" text-anchor="middle" fill="#185FA5">2s</text>
  <rect x="36" y="650" width="80" height="26" rx="6" fill="#B5D4F4" stroke="#378ADD" stroke-width="0.8"/>
  <rect x="36" y="650" width="11" height="17" rx="3" fill="#85B7EB" stroke="#378ADD" stroke-width="0.5"/>
  <rect x="105" y="650" width="11" height="17" rx="3" fill="#85B7EB" stroke="#378ADD" stroke-width="0.5"/>
  <rect x="36" y="646" width="80" height="8" rx="3" fill="#85B7EB" stroke="#378ADD" stroke-width="0.5"/>
  <circle cx="60" cy="663" r="8" fill="#185FA5"/>
  <circle cx="92" cy="663" r="8" fill="#185FA5"/>
  <text font-size="10" x="58" y="667" text-anchor="middle" fill="white">↑</text>
  <text font-size="10" x="90" y="667" text-anchor="middle" fill="white">↓</text>

  <!-- 2p x3 full -->
  <rect x="446" y="578" width="60" height="144" rx="8" fill="#f8fafc" stroke="#D85A30" stroke-width="0.8"/>
  <text class="ts" x="476" y="596" text-anchor="middle" fill="#993C1D">2p</text>
  <rect x="451" y="650" width="50" height="26" rx="5" fill="#F5C4B3" stroke="#D85A30" stroke-width="0.5"/>
  <rect x="451" y="650" width="8" height="17" rx="2" fill="#F0997B" stroke="#D85A30" stroke-width="0.5"/>
  <rect x="493" y="650" width="8" height="17" rx="2" fill="#F0997B" stroke="#D85A30" stroke-width="0.5"/>
  <rect x="451" y="646" width="50" height="8" rx="3" fill="#F0997B" stroke="#D85A30" stroke-width="0.5"/>
  <circle cx="467" cy="663" r="7" fill="#993C1D"/><circle cx="485" cy="663" r="7" fill="#993C1D"/>
  <text font-size="9" x="465" y="667" text-anchor="middle" fill="white">↑</text>
  <text font-size="9" x="483" y="667" text-anchor="middle" fill="white">↓</text>

  <rect x="514" y="578" width="60" height="144" rx="8" fill="#f8fafc" stroke="#D85A30" stroke-width="0.8"/>
  <text class="ts" x="544" y="596" text-anchor="middle" fill="#993C1D">2p</text>
  <rect x="519" y="650" width="50" height="26" rx="5" fill="#F5C4B3" stroke="#D85A30" stroke-width="0.5"/>
  <rect x="519" y="650" width="8" height="17" rx="2" fill="#F0997B" stroke="#D85A30" stroke-width="0.5"/>
  <rect x="561" y="650" width="8" height="17" rx="2" fill="#F0997B" stroke="#D85A30" stroke-width="0.5"/>
  <rect x="519" y="646" width="50" height="8" rx="3" fill="#F0997B" stroke="#D85A30" stroke-width="0.5"/>
  <circle cx="535" cy="663" r="7" fill="#993C1D"/><circle cx="553" cy="663" r="7" fill="#993C1D"/>
  <text font-size="9" x="533" y="667" text-anchor="middle" fill="white">↑</text>
  <text font-size="9" x="551" y="667" text-anchor="middle" fill="white">↓</text>

  <rect x="582" y="578" width="60" height="144" rx="8" fill="#f8fafc" stroke="#D85A30" stroke-width="0.8"/>
  <text class="ts" x="612" y="596" text-anchor="middle" fill="#993C1D">2p</text>
  <rect x="587" y="650" width="50" height="26" rx="5" fill="#F5C4B3" stroke="#D85A30" stroke-width="0.5"/>
  <rect x="587" y="650" width="8" height="17" rx="2" fill="#F0997B" stroke="#D85A30" stroke-width="0.5"/>
  <rect x="629" y="650" width="8" height="17" rx="2" fill="#F0997B" stroke="#D85A30" stroke-width="0.5"/>
  <rect x="587" y="646" width="50" height="8" rx="3" fill="#F0997B" stroke="#D85A30" stroke-width="0.5"/>
  <circle cx="603" cy="663" r="7" fill="#993C1D"/><circle cx="621" cy="663" r="7" fill="#993C1D"/>
  <text font-size="9" x="601" y="667" text-anchor="middle" fill="white">↑</text>
  <text font-size="9" x="619" y="667" text-anchor="middle" fill="white">↓</text>

  <!-- FLOOR 3: 3s full -->
  <rect x="28" y="318" width="96" height="244" rx="8" fill="#f8fafc" stroke="#378ADD" stroke-width="0.8"/>
  <text class="ts" x="76" y="336" text-anchor="middle" fill="#185FA5">3s</text>
  <rect x="36" y="430" width="80" height="26" rx="6" fill="#B5D4F4" stroke="#378ADD" stroke-width="0.8"/>
  <rect x="36" y="430" width="11" height="17" rx="3" fill="#85B7EB" stroke="#378ADD" stroke-width="0.5"/>
  <rect x="105" y="430" width="11" height="17" rx="3" fill="#85B7EB" stroke="#378ADD" stroke-width="0.5"/>
  <rect x="36" y="426" width="80" height="8" rx="3" fill="#85B7EB" stroke="#378ADD" stroke-width="0.5"/>
  <circle cx="60" cy="443" r="8" fill="#185FA5"/><circle cx="92" cy="443" r="8" fill="#185FA5"/>
  <text font-size="10" x="58" y="447" text-anchor="middle" fill="white">↑</text>
  <text font-size="10" x="90" y="447" text-anchor="middle" fill="white">↓</text>

  <!-- 3d label -->
  <text class="ts" x="285" y="330" text-anchor="middle" fill="#085041">3d</text>

  <!-- 3d-1 paired -->
  <rect x="152" y="318" width="48" height="244" rx="7" fill="#f8fafc" stroke="#0F6E56" stroke-width="0.8"/>
  <text class="ts" x="176" y="336" text-anchor="middle" fill="#085041">3d</text>
  <rect x="158" y="408" width="36" height="80" rx="5" fill="#9FE1CB" stroke="#0F6E56" stroke-width="0.5"/>
  <rect x="158" y="408" width="36" height="9" rx="3" fill="#5DCAA5" stroke="#0F6E56" stroke-width="0.5"/>
  <rect x="158" y="417" width="8" height="56" rx="3" fill="#5DCAA5" stroke="#0F6E56" stroke-width="0.5"/>
  <rect x="186" y="417" width="8" height="56" rx="3" fill="#5DCAA5" stroke="#0F6E56" stroke-width="0.5"/>
  <circle cx="176" cy="434" r="8" fill="#085041"/><circle cx="176" cy="457" r="8" fill="#085041"/>
  <text font-size="9" x="174" y="438" text-anchor="middle" fill="white">↑</text>
  <text font-size="9" x="174" y="461" text-anchor="middle" fill="white">↓</text>

  <!-- 3d-2 single -->
  <rect x="208" y="318" width="48" height="244" rx="7" fill="#f8fafc" stroke="#0F6E56" stroke-width="0.8"/>
  <text class="ts" x="232" y="336" text-anchor="middle" fill="#085041">3d</text>
  <rect x="214" y="408" width="36" height="80" rx="5" fill="#9FE1CB" stroke="#0F6E56" stroke-width="0.5"/>
  <rect x="214" y="408" width="36" height="9" rx="3" fill="#5DCAA5" stroke="#0F6E56" stroke-width="0.5"/>
  <rect x="214" y="417" width="8" height="56" rx="3" fill="#5DCAA5" stroke="#0F6E56" stroke-width="0.5"/>
  <rect x="242" y="417" width="8" height="56" rx="3" fill="#5DCAA5" stroke="#0F6E56" stroke-width="0.5"/>
  <circle cx="232" cy="434" r="8" fill="#085041"/>
  <text font-size="9" x="230" y="438" text-anchor="middle" fill="white">↑</text>

  <!-- 3d-3 single -->
  <rect x="264" y="318" width="48" height="244" rx="7" fill="#f8fafc" stroke="#0F6E56" stroke-width="0.8"/>
  <text class="ts" x="288" y="336" text-anchor="middle" fill="#085041">3d</text>
  <rect x="270" y="408" width="36" height="80" rx="5" fill="#9FE1CB" stroke="#0F6E56" stroke-width="0.5"/>
  <rect x="270" y="408" width="36" height="9" rx="3" fill="#5DCAA5" stroke="#0F6E56" stroke-width="0.5"/>
  <rect x="270" y="417" width="8" height="56" rx="3" fill="#5DCAA5" stroke="#0F6E56" stroke-width="0.5"/>
  <rect x="298" y="417" width="8" height="56" rx="3" fill="#5DCAA5" stroke="#0F6E56" stroke-width="0.5"/>
  <circle cx="288" cy="434" r="8" fill="#085041"/>
  <text font-size="9" x="286" y="438" text-anchor="middle" fill="white">↑</text>

  <!-- 3d-4 single -->
  <rect x="320" y="318" width="48" height="244" rx="7" fill="#f8fafc" stroke="#0F6E56" stroke-width="0.8"/>
  <text class="ts" x="344" y="336" text-anchor="middle" fill="#085041">3d</text>
  <rect x="326" y="408" width="36" height="80" rx="5" fill="#9FE1CB" stroke="#0F6E56" stroke-width="0.5"/>
  <rect x="326" y="408" width="36" height="9" rx="3" fill="#5DCAA5" stroke="#0F6E56" stroke-width="0.5"/>
  <rect x="326" y="417" width="8" height="56" rx="3" fill="#5DCAA5" stroke="#0F6E56" stroke-width="0.5"/>
  <rect x="354" y="417" width="8" height="56" rx="3" fill="#5DCAA5" stroke="#0F6E56" stroke-width="0.5"/>
  <circle cx="344" cy="434" r="8" fill="#085041"/>
  <text font-size="9" x="342" y="438" text-anchor="middle" fill="white">↑</text>

  <!-- 3d-5 empty -->
  <rect x="376" y="318" width="48" height="244" rx="7" fill="#f8fafc" stroke="#0F6E56" stroke-width="0.8"/>
  <text class="ts" x="400" y="336" text-anchor="middle" fill="#085041">3d</text>
  <rect x="382" y="408" width="36" height="80" rx="5" fill="#f1f0ea" stroke="#ccc" stroke-width="0.5"/>
  <rect x="382" y="408" width="36" height="9" rx="3" fill="#ccc" stroke="#bbb" stroke-width="0.5"/>
  <rect x="382" y="417" width="8" height="56" rx="3" fill="#ccc" stroke="#bbb" stroke-width="0.5"/>
  <rect x="410" y="417" width="8" height="56" rx="3" fill="#ccc" stroke="#bbb" stroke-width="0.5"/>

  <!-- 3p full x3 -->
  <rect x="446" y="318" width="60" height="244" rx="8" fill="#f8fafc" stroke="#D85A30" stroke-width="0.8"/>
  <text class="ts" x="476" y="336" text-anchor="middle" fill="#993C1D">3p</text>
  <rect x="451" y="430" width="50" height="26" rx="5" fill="#F5C4B3" stroke="#D85A30" stroke-width="0.5"/>
  <rect x="451" y="430" width="8" height="17" rx="2" fill="#F0997B" stroke="#D85A30" stroke-width="0.5"/>
  <rect x="493" y="430" width="8" height="17" rx="2" fill="#F0997B" stroke="#D85A30" stroke-width="0.5"/>
  <rect x="451" y="426" width="50" height="8" rx="3" fill="#F0997B" stroke="#D85A30" stroke-width="0.5"/>
  <circle cx="467" cy="443" r="7" fill="#993C1D"/><circle cx="485" cy="443" r="7" fill="#993C1D"/>
  <text font-size="9" x="465" y="447" text-anchor="middle" fill="white">↑</text>
  <text font-size="9" x="483" y="447" text-anchor="middle" fill="white">↓</text>

  <rect x="514" y="318" width="60" height="244" rx="8" fill="#f8fafc" stroke="#D85A30" stroke-width="0.8"/>
  <text class="ts" x="544" y="336" text-anchor="middle" fill="#993C1D">3p</text>
  <rect x="519" y="430" width="50" height="26" rx="5" fill="#F5C4B3" stroke="#D85A30" stroke-width="0.5"/>
  <rect x="519" y="430" width="8" height="17" rx="2" fill="#F0997B" stroke="#D85A30" stroke-width="0.5"/>
  <rect x="561" y="430" width="8" height="17" rx="2" fill="#F0997B" stroke="#D85A30" stroke-width="0.5"/>
  <rect x="519" y="426" width="50" height="8" rx="3" fill="#F0997B" stroke="#D85A30" stroke-width="0.5"/>
  <circle cx="535" cy="443" r="7" fill="#993C1D"/><circle cx="553" cy="443" r="7" fill="#993C1D"/>
  <text font-size="9" x="533" y="447" text-anchor="middle" fill="white">↑</text>
  <text font-size="9" x="551" y="447" text-anchor="middle" fill="white">↓</text>

  <rect x="582" y="318" width="60" height="244" rx="8" fill="#f8fafc" stroke="#D85A30" stroke-width="0.8"/>
  <text class="ts" x="612" y="336" text-anchor="middle" fill="#993C1D">3p</text>
  <rect x="587" y="430" width="50" height="26" rx="5" fill="#F5C4B3" stroke="#D85A30" stroke-width="0.5"/>
  <rect x="587" y="430" width="8" height="17" rx="2" fill="#F0997B" stroke="#D85A30" stroke-width="0.5"/>
  <rect x="629" y="430" width="8" height="17" rx="2" fill="#F0997B" stroke="#D85A30" stroke-width="0.5"/>
  <rect x="587" y="426" width="50" height="8" rx="3" fill="#F0997B" stroke="#D85A30" stroke-width="0.5"/>
  <circle cx="603" cy="443" r="7" fill="#993C1D"/><circle cx="621" cy="443" r="7" fill="#993C1D"/>
  <text font-size="9" x="601" y="447" text-anchor="middle" fill="white">↑</text>
  <text font-size="9" x="619" y="447" text-anchor="middle" fill="white">↓</text>

  <!-- FLOOR 4: 4s full -->
  <rect x="28" y="88" width="96" height="214" rx="8" fill="#f8fafc" stroke="#378ADD" stroke-width="0.8"/>
  <text class="ts" x="76" y="106" text-anchor="middle" fill="#185FA5">4s</text>
  <rect x="36" y="190" width="80" height="26" rx="6" fill="#B5D4F4" stroke="#378ADD" stroke-width="0.8"/>
  <rect x="36" y="190" width="11" height="17" rx="3" fill="#85B7EB" stroke="#378ADD" stroke-width="0.5"/>
  <rect x="105" y="190" width="11" height="17" rx="3" fill="#85B7EB" stroke="#378ADD" stroke-width="0.5"/>
  <rect x="36" y="186" width="80" height="8" rx="3" fill="#85B7EB" stroke="#378ADD" stroke-width="0.5"/>
  <circle cx="60" cy="203" r="8" fill="#185FA5"/><circle cx="92" cy="203" r="8" fill="#185FA5"/>
  <text font-size="10" x="58" y="207" text-anchor="middle" fill="white">↑</text>
  <text font-size="10" x="90" y="207" text-anchor="middle" fill="white">↓</text>

  <!-- 4d empty annex -->
  <rect x="152" y="88" width="272" height="214" rx="8" fill="#f1f0ea" stroke="#ccc" stroke-width="0.8" stroke-dasharray="6 3"/>
  <text class="ts" x="288" y="202" text-anchor="middle" fill="#888">4d</text>

  <!-- 4p empty x3 -->
  <rect x="446" y="88" width="60" height="214" rx="8" fill="#f8fafc" stroke="#aaa" stroke-width="0.8"/>
  <text class="ts" x="476" y="106" text-anchor="middle" fill="#888">4p</text>
  <rect x="451" y="188" width="50" height="26" rx="5" fill="#f1f0ea" stroke="#ccc" stroke-width="0.5"/>
  <rect x="451" y="188" width="8" height="17" rx="2" fill="#ccc" stroke="#bbb" stroke-width="0.5"/>
  <rect x="493" y="188" width="8" height="17" rx="2" fill="#ccc" stroke="#bbb" stroke-width="0.5"/>
  <rect x="451" y="184" width="50" height="8" rx="3" fill="#ccc" stroke="#bbb" stroke-width="0.5"/>

  <rect x="514" y="88" width="60" height="214" rx="8" fill="#f8fafc" stroke="#aaa" stroke-width="0.8"/>
  <text class="ts" x="544" y="106" text-anchor="middle" fill="#888">4p</text>
  <rect x="519" y="188" width="50" height="26" rx="5" fill="#f1f0ea" stroke="#ccc" stroke-width="0.5"/>
  <rect x="519" y="188" width="8" height="17" rx="2" fill="#ccc" stroke="#bbb" stroke-width="0.5"/>
  <rect x="561" y="188" width="8" height="17" rx="2" fill="#ccc" stroke="#bbb" stroke-width="0.5"/>
  <rect x="519" y="184" width="50" height="8" rx="3" fill="#ccc" stroke="#bbb" stroke-width="0.5"/>

  <rect x="582" y="88" width="60" height="214" rx="8" fill="#f8fafc" stroke="#aaa" stroke-width="0.8"/>
  <text class="ts" x="612" y="106" text-anchor="middle" fill="#888">4p</text>
  <rect x="587" y="188" width="50" height="26" rx="5" fill="#f1f0ea" stroke="#ccc" stroke-width="0.5"/>
  <rect x="587" y="188" width="8" height="17" rx="2" fill="#ccc" stroke="#bbb" stroke-width="0.5"/>
  <rect x="629" y="188" width="8" height="17" rx="2" fill="#ccc" stroke="#bbb" stroke-width="0.5"/>
  <rect x="587" y="184" width="50" height="8" rx="3" fill="#ccc" stroke="#bbb" stroke-width="0.5"/>

  <!-- ══════════ AUFBAU ARROWS ══════════ -->

  <!-- ① 1s → 2s: up s column, stop at bottom edge of 2s (y=722) -->
  <path d="M76 736 L76 724" fill="none" stroke="#BA7517" stroke-width="1.5" stroke-dasharray="4 3" marker-end="url(#arr-amber)"/>
  <circle cx="76" cy="756" r="9" fill="#BA7517"/>
  <text font-size="9" x="76" y="760" text-anchor="middle" fill="white" font-weight="500">1</text>

  <!-- ② 2s → 2p: right from 2s right edge (x=124) to left edge of first 2p (x=446), y=650 -->
  <path d="M124 650 L440 650" fill="none" stroke="#BA7517" stroke-width="1.5" stroke-dasharray="4 3" marker-end="url(#arr-amber)"/>
  <circle cx="282" cy="650" r="9" fill="#BA7517"/>
  <text font-size="9" x="282" y="654" text-anchor="middle" fill="white" font-weight="500">2</text>

  <!-- ③ 2p → 3s:
       Exit top of last 2p room (x=642, y=578 top edge), go up to y=560 (just above floor 2 boundary),
       sweep left across to s column x=28 (left edge of 3s room), then stop.
       Route stays ABOVE the floor 2/3 boundary line (y=570) and arrives at the TOP edge of 3s (y=318)
       via the left margin.
       Path: start right side of 2p-C at (642, 600) → right to x=655 → up to y=440 (3s mid) → left to x=124 (3s right edge)
  -->
  <path d="M642 600 L655 600 L655 440 L132 440"
        fill="none" stroke="#BA7517" stroke-width="1.5" stroke-dasharray="4 3" marker-end="url(#arr-amber)"/>
  <circle cx="655" cy="520" r="9" fill="#BA7517"/>
  <text font-size="9" x="655" y="524" text-anchor="middle" fill="white" font-weight="500">3</text>

  <!-- ④ 3s → 3p: right from 3s (x=124) to left edge of first 3p (x=446), routed at y=530 below sofas -->
  <path d="M124 530 L440 530" fill="none" stroke="#BA7517" stroke-width="1.5" stroke-dasharray="4 3" marker-end="url(#arr-amber)"/>
  <circle cx="282" cy="530" r="9" fill="#BA7517"/>
  <text font-size="9" x="282" y="534" text-anchor="middle" fill="white" font-weight="500">4</text>

  <!-- ⑤ 3p → 4s: right margin up from floor 3 to floor 4, arrive at 4s right edge -->
  <path d="M642 380 L658 380 L658 74 L76 74 L76 96" fill="none" stroke="#BA7517" stroke-width="1.5" stroke-dasharray="4 3" marker-end="url(#arr-amber)"/>
  <circle cx="658" cy="230" r="9" fill="#BA7517"/>
  <text font-size="9" x="658" y="234" text-anchor="middle" fill="white" font-weight="500">5</text>

  <!-- ⑥ 4s → 3d: down from bottom of 4s, swoop right to left edge of 3d annex -->
  <path d="M76 302 L76 314 Q76 320 82 320 L146 320" fill="none" stroke="#BA7517" stroke-width="1.5" stroke-dasharray="4 3" marker-end="url(#arr-amber)"/>
  <circle cx="76" cy="280" r="9" fill="#BA7517"/>
  <text font-size="9" x="76" y="284" text-anchor="middle" fill="white" font-weight="500">6</text>

  <!-- ⑦ 3d → 4p: thread up the gap between d annex right (x=424) and p wing left (x=446), arrive at 4p -->
  <path d="M424 360 L434 360 L434 92 Q434 88 438 88 L440 88" fill="none" stroke="#BA7517" stroke-width="1.5" stroke-dasharray="4 3" marker-end="url(#arr-amber)"/>
  <circle cx="434" cy="224" r="9" fill="#BA7517"/>
  <text font-size="9" x="434" y="228" text-anchor="middle" fill="white" font-weight="500">7</text>



</svg>
