<svg xmlns="http://www.w3.org/2000/svg" viewBox="0 0 280 120" role="img" aria-labelledby="title desc">
  <title id="title">Mixture particle diagrams</title>
  <desc id="desc">Examples of a homogeneous mixture with even distribution and a heterogeneous mixture with separated regions.</desc>
  <rect x="5" y="5" width="130" height="110" rx="6" fill="#f0fdf4" stroke="#86efac" stroke-width="2"/>
  <text x="70" y="18" text-anchor="middle" font-family="Arial, Helvetica, sans-serif" font-size="11" fill="#166534">Homogeneous (N2 + Ar)</text>
  <circle cx="20" cy="42" r="11" fill="#3b82f6" stroke="#1d4ed8" stroke-width="1.5"/>
  <circle cx="40" cy="42" r="11" fill="#3b82f6" stroke="#1d4ed8" stroke-width="1.5"/>
  <circle cx="80" cy="36" r="14" fill="#f97316" stroke="#c2410c" stroke-width="1.5"/>
  <circle cx="115" cy="44" r="14" fill="#f97316" stroke="#c2410c" stroke-width="1.5"/>
  <circle cx="25" cy="80" r="14" fill="#f97316" stroke="#c2410c" stroke-width="1.5"/>
  <circle cx="65" cy="76" r="11" fill="#3b82f6" stroke="#1d4ed8" stroke-width="1.5"/>
  <circle cx="85" cy="76" r="11" fill="#3b82f6" stroke="#1d4ed8" stroke-width="1.5"/>
  <circle cx="115" cy="82" r="14" fill="#f97316" stroke="#c2410c" stroke-width="1.5"/>
  <rect x="145" y="5" width="130" height="110" rx="6" fill="#fffbeb" stroke="#fcd34d" stroke-width="2"/>
  <text x="210" y="18" text-anchor="middle" font-family="Arial, Helvetica, sans-serif" font-size="11" fill="#92400e">Heterogeneous (layered)</text>
  <line x1="145" y1="58" x2="275" y2="58" stroke="#fcd34d" stroke-width="1.5" stroke-dasharray="4,3"/>
  <circle cx="165" cy="35" r="11" fill="#3b82f6" stroke="#1d4ed8" stroke-width="1.5"/>
  <circle cx="185" cy="35" r="11" fill="#3b82f6" stroke="#1d4ed8" stroke-width="1.5"/>
  <circle cx="215" cy="30" r="11" fill="#3b82f6" stroke="#1d4ed8" stroke-width="1.5"/>
  <circle cx="235" cy="30" r="11" fill="#3b82f6" stroke="#1d4ed8" stroke-width="1.5"/>
  <circle cx="255" cy="38" r="11" fill="#3b82f6" stroke="#1d4ed8" stroke-width="1.5"/>
  <circle cx="168" cy="76" r="14" fill="#f97316" stroke="#c2410c" stroke-width="1.5"/>
  <circle cx="205" cy="74" r="14" fill="#f97316" stroke="#c2410c" stroke-width="1.5"/>
  <circle cx="244" cy="78" r="14" fill="#f97316" stroke="#c2410c" stroke-width="1.5"/>
  <circle cx="186" cy="96" r="14" fill="#f97316" stroke="#c2410c" stroke-width="1.5"/>
  <circle cx="225" cy="98" r="14" fill="#f97316" stroke="#c2410c" stroke-width="1.5"/>
</svg>
