<svg xmlns="http://www.w3.org/2000/svg" viewBox="0 0 420 120" role="img" aria-labelledby="title desc">
  <title id="title">Compound particle diagrams</title>
  <desc id="desc">Examples of compounds showing different atom types bonded in a repeating ratio.</desc>
  <rect x="5" y="5" width="130" height="110" rx="6" fill="#faf5ff" stroke="#c4b5fd" stroke-width="1.5"/>
  <text x="70" y="18" text-anchor="middle" font-family="Arial, Helvetica, sans-serif" font-size="11" fill="#64748b">Compound - HCl (g)</text>
  <circle cx="30" cy="42" r="11" fill="#3b82f6" stroke="#1d4ed8" stroke-width="1.5"/>
  <circle cx="50" cy="42" r="11" fill="#f97316" stroke="#c2410c" stroke-width="1.5"/>
  <circle cx="80" cy="36" r="11" fill="#3b82f6" stroke="#1d4ed8" stroke-width="1.5"/>
  <circle cx="100" cy="36" r="11" fill="#f97316" stroke="#c2410c" stroke-width="1.5"/>
  <circle cx="28" cy="80" r="11" fill="#3b82f6" stroke="#1d4ed8" stroke-width="1.5"/>
  <circle cx="48" cy="80" r="11" fill="#f97316" stroke="#c2410c" stroke-width="1.5"/>
  <circle cx="80" cy="76" r="11" fill="#3b82f6" stroke="#1d4ed8" stroke-width="1.5"/>
  <circle cx="100" cy="76" r="11" fill="#f97316" stroke="#c2410c" stroke-width="1.5"/>
  <rect x="145" y="5" width="130" height="110" rx="6" fill="#faf5ff" stroke="#c4b5fd" stroke-width="1.5"/>
  <text x="210" y="18" text-anchor="middle" font-family="Arial, Helvetica, sans-serif" font-size="11" fill="#64748b">Compound - CO2 (g)</text>
  <circle cx="160" cy="40" r="9" fill="#ef4444" stroke="#b91c1c" stroke-width="1.5"/>
  <circle cx="178" cy="40" r="12" fill="#1e293b" stroke="#0f172a" stroke-width="1.5"/>
  <circle cx="196" cy="40" r="9" fill="#ef4444" stroke="#b91c1c" stroke-width="1.5"/>
  <circle cx="215" cy="35" r="9" fill="#ef4444" stroke="#b91c1c" stroke-width="1.5"/>
  <circle cx="233" cy="35" r="12" fill="#1e293b" stroke="#0f172a" stroke-width="1.5"/>
  <circle cx="251" cy="35" r="9" fill="#ef4444" stroke="#b91c1c" stroke-width="1.5"/>
  <circle cx="160" cy="78" r="9" fill="#ef4444" stroke="#b91c1c" stroke-width="1.5"/>
  <circle cx="178" cy="78" r="12" fill="#1e293b" stroke="#0f172a" stroke-width="1.5"/>
  <circle cx="196" cy="78" r="9" fill="#ef4444" stroke="#b91c1c" stroke-width="1.5"/>
  <circle cx="220" cy="74" r="9" fill="#ef4444" stroke="#b91c1c" stroke-width="1.5"/>
  <circle cx="238" cy="74" r="12" fill="#1e293b" stroke="#0f172a" stroke-width="1.5"/>
  <circle cx="256" cy="74" r="9" fill="#ef4444" stroke="#b91c1c" stroke-width="1.5"/>
  <rect x="285" y="5" width="130" height="110" rx="6" fill="#faf5ff" stroke="#c4b5fd" stroke-width="1.5"/>
  <text x="350" y="18" text-anchor="middle" font-family="Arial, Helvetica, sans-serif" font-size="11" fill="#64748b">Compound - NaCl (s)</text>
  <circle cx="305" cy="40" r="11" fill="#3b82f6" stroke="#1d4ed8" stroke-width="1.5"/>
  <circle cx="330" cy="40" r="11" fill="#ef4444" stroke="#b91c1c" stroke-width="1.5"/>
  <circle cx="355" cy="40" r="11" fill="#3b82f6" stroke="#1d4ed8" stroke-width="1.5"/>
  <circle cx="380" cy="40" r="11" fill="#ef4444" stroke="#b91c1c" stroke-width="1.5"/>
  <circle cx="305" cy="65" r="11" fill="#ef4444" stroke="#b91c1c" stroke-width="1.5"/>
  <circle cx="330" cy="65" r="11" fill="#3b82f6" stroke="#1d4ed8" stroke-width="1.5"/>
  <circle cx="355" cy="65" r="11" fill="#ef4444" stroke="#b91c1c" stroke-width="1.5"/>
  <circle cx="380" cy="65" r="11" fill="#3b82f6" stroke="#1d4ed8" stroke-width="1.5"/>
  <circle cx="305" cy="90" r="11" fill="#3b82f6" stroke="#1d4ed8" stroke-width="1.5"/>
  <circle cx="330" cy="90" r="11" fill="#ef4444" stroke="#b91c1c" stroke-width="1.5"/>
  <circle cx="355" cy="90" r="11" fill="#3b82f6" stroke="#1d4ed8" stroke-width="1.5"/>
  <circle cx="380" cy="90" r="11" fill="#ef4444" stroke="#b91c1c" stroke-width="1.5"/>
</svg>
